<?xml version="1.0" encoding="UTF-8"?>
<svg
  xmlns="http://www.w3.org/2000/svg"
  viewBox="0 0 1024 1024"
  width="100%"
  height="100%"
  fill="none"
>
<path d="M0 0 C337.92 0 675.84 0 1024 0 C1024 337.92 1024 675.84 1024 1024 C686.08 1024 348.16 1024 0 1024 C0 686.08 0 348.16 0 0 Z " fill="#2F495D" transform="translate(0,0)"/>
<path d="M0 0 C0.33 0 0.66 0 1 0 C1 164.67 1 329.34 1 499 C-162.68 499 -326.36 499 -495 499 C-495 498.67 -495 498.34 -495 498 C-493.2048999 497.89510254 -493.2048999 497.89510254 -491.37353516 497.78808594 C-458.02650096 495.82586382 -458.02650096 495.82586382 -425 491 C-423.9594043 490.80647949 -422.91880859 490.61295898 -421.84667969 490.41357422 C-401.64237343 486.62870342 -381.62193225 482.14927387 -362 476 C-360.81921875 475.63181152 -359.6384375 475.26362305 -358.421875 474.88427734 C-355.01293383 473.81896662 -351.60758989 472.74265479 -348.20404053 471.6602478 C-346.83866257 471.22664019 -345.47267139 470.79495793 -344.10601807 470.36538696 C-336.75641584 468.05002104 -329.62672531 465.54728428 -322.65527344 462.24169922 C-319.87442027 460.9412745 -317.06389208 459.75989427 -314.22265625 458.59765625 C-289.79883602 448.57224447 -266.45634982 436.8871962 -244 423 C-242.73373779 422.22245361 -242.73373779 422.22245361 -241.44189453 421.42919922 C-231.00253156 415.00451123 -220.84868588 408.29722687 -211 401 C-210.34902344 400.52030762 -209.69804688 400.04061523 -209.02734375 399.54638672 C-197.71055735 391.19569353 -186.73110964 382.58503703 -176.32421875 373.109375 C-174.27957665 371.25373343 -172.21215851 369.43243624 -170.125 367.625 C-161.71968006 360.27453097 -153.59730729 352.69204017 -145.6875 344.8125 C-144.70136719 343.83325562 -144.70136719 343.83325562 -143.6953125 342.83422852 C-139.83133404 338.95805315 -136.15912588 334.96703181 -132.58325195 330.82397461 C-130.5273397 328.45547492 -128.38878334 326.16866075 -126.25 323.875 C-120.95793754 318.06976784 -116.12457283 311.96350175 -111.33935547 305.73779297 C-110.06958938 304.09029114 -108.78888046 302.45205966 -107.50390625 300.81640625 C-75.36958844 259.63306454 -50.46031035 213.79601823 -32 165 C-31.59430786 163.93652344 -31.59430786 163.93652344 -31.18041992 162.8515625 C-28.49921474 155.78222459 -26.1254368 148.61648795 -23.78955078 141.42675781 C-23.28726987 139.88295068 -22.78088764 138.34046741 -22.26904297 136.79980469 C-7.69674124 92.67227107 -2.31877124 46.18392845 0 0 Z " fill="#FCFCFC" transform="translate(1023,525)"/>
<path d="M0 0 C0.33 0 0.66 0 1 0 C1.04898438 0.969375 1.09796875 1.93875 1.1484375 2.9375 C1.60398091 11.32330366 2.36624008 19.59204969 3.4765625 27.91796875 C3.83210763 30.60509415 4.13909482 33.29019586 4.3984375 35.98828125 C7.48913838 67.84888435 14.2665826 99.89282908 24.1496582 130.33129883 C24.74842188 132.21045063 25.32576684 134.09649445 25.88745117 135.98706055 C28.47637696 144.6907825 31.59555389 153.12785827 34.9375 161.5625 C35.35876663 162.62957184 35.35876663 162.62957184 35.7885437 163.71820068 C51.38169842 203.09270888 70.94784199 240.79018257 96 275 C96.79083984 276.08015381 96.79083984 276.08015381 97.59765625 277.18212891 C101.01473455 281.8270859 104.48992894 286.4250355 108 291 C108.47034668 291.61601074 108.94069336 292.23202148 109.42529297 292.86669922 C114.91869182 300.0439566 120.5832243 306.91950181 126.73046875 313.55078125 C128.71380462 315.69114544 130.64960189 317.85936908 132.5625 320.0625 C139.80111314 328.37750359 147.24830462 336.40917698 155.0625 344.1875 C155.90876953 345.03763672 156.75503906 345.88777344 157.62695312 346.76367188 C162.05034384 351.18024164 166.54023298 355.44944316 171.28198242 359.52270508 C173.44360994 361.38145285 175.53088508 363.31579931 177.625 365.25 C183.27996713 370.35072839 189.24018532 375.01125703 195.26806641 379.65771484 C196.85907956 380.89078368 198.43612402 382.14182105 200.01171875 383.39453125 C221.48740454 400.32242476 244.90066096 415.1150639 269 428 C269.91362305 428.49032715 270.82724609 428.9806543 271.76855469 429.48583984 C282.92209683 435.45173148 294.08106252 441.21824119 305.77172852 446.06323242 C307.54342809 446.80805671 309.30804815 447.56971608 311.07006836 448.3371582 C319.4337106 451.97319393 327.86784702 455.30937087 336.4375 458.4375 C337.08540497 458.67400269 337.73330994 458.91050537 338.40084839 459.1541748 C370.8359718 470.95920713 403.97855315 478.53414448 438 484 C439.58748047 484.25523437 439.58748047 484.25523437 441.20703125 484.515625 C456.39766689 486.90008201 471.6621695 488.02050314 487 489 C487 489.33 487 489.66 487 490 C326.29 490 165.58 490 0 490 C0 328.3 0 166.6 0 0 Z " fill="#FCFCFC" transform="translate(0,534)"/>
<path d="M0 0 C160.05 0 320.1 0 485 0 C485 159.39 485 318.78 485 483 C484.67 483 484.34 483 484 483 C483.96036133 482.45512939 483.92072266 481.91025879 483.87988281 481.34887695 C480.88145872 441.30500608 473.51959559 402.17602701 462.375 363.625 C462.18699829 362.97246246 461.99899658 362.31992493 461.80529785 361.64761353 C459.49011066 353.644827 456.94608321 345.79161481 454 338 C453.3916485 336.34515447 452.78357222 334.69020773 452.17578125 333.03515625 C447.60843077 320.77985976 442.53682232 308.84642873 437 297 C436.5678418 296.06865234 436.13568359 295.13730469 435.69042969 294.17773438 C422.53570589 265.89555243 407.08704415 238.79374973 388.34863281 213.80712891 C386.48794543 211.31386171 384.68424343 208.78074334 382.875 206.25 C367.19641097 184.76574098 349.37898886 165.31429107 330.625 146.5 C329.69768066 145.56800781 328.77036133 144.63601562 327.81494141 143.67578125 C322.70319549 138.57599371 317.49970404 133.67733219 312 129 C310.88199174 128.02698393 309.76477497 127.05305751 308.6484375 126.078125 C301.15438433 119.58742657 293.5075491 113.34564548 285.65869141 107.28955078 C284.11866717 106.09225787 282.59566521 104.87315726 281.07421875 103.65234375 C260.91524622 87.65866885 238.64708756 74.47448019 216.10791016 62.15820312 C214.24533301 61.13479961 212.39329859 60.09225909 210.54296875 59.046875 C202.035079 54.33237498 193.24199179 50.29646108 184.375 46.3125 C183.45525894 45.89803116 183.45525894 45.89803116 182.51693726 45.47518921 C124.57346112 19.43236086 63.17365587 5.75837249 0 1 C0 0.67 0 0.34 0 0 Z " fill="#FCFCFC" transform="translate(539,0)"/>
<path d="M0 0 C163.35 0 326.7 0 495 0 C495 0.33 495 0.66 495 1 C494.12601562 1.04487549 493.25203125 1.08975098 492.3515625 1.13598633 C433.35854294 4.2394582 374.60202015 14.73993365 320 38 C318.37138757 38.67909049 316.74249715 39.35751482 315.11328125 40.03515625 C279.02931146 55.20190957 244.46824635 73.61876415 213 97 C212.35337402 97.47679199 211.70674805 97.95358398 211.04052734 98.44482422 C202.50620889 104.74189304 194.11073345 111.16086459 186 118 C185.20045898 118.67216553 185.20045898 118.67216553 184.38476562 119.35791016 C182.62752823 120.83813721 180.87540208 122.32419798 179.125 123.8125 C178.60856934 124.24949219 178.09213867 124.68648438 177.56005859 125.13671875 C166.88199548 134.28104132 156.78632631 144.04698256 146.86816406 154.00146484 C145.1085652 155.76648544 143.34359603 157.52601133 141.578125 159.28515625 C135.83925122 165.02035829 130.22552689 170.78600617 125 177 C124.12338036 178.00996996 123.24582632 179.01912991 122.3671875 180.02734375 C84.53846697 224.20037948 55.29950404 275.01042483 34 329 C33.49750732 330.26070313 33.49750732 330.26070313 32.98486328 331.546875 C29.54333926 340.21413638 26.70336349 348.99408006 24.17578125 357.96484375 C23.37839068 360.77750768 22.48509812 363.53742262 21.53125 366.30078125 C19.76436222 371.54320169 18.46011109 376.86922776 17.1875 382.25 C16.93178223 383.32773682 16.67606445 384.40547363 16.41259766 385.51586914 C8.09688248 420.99100469 3.29542862 455.70155159 1 492 C0.67 492 0.34 492 0 492 C0 329.64 0 167.28 0 0 Z " fill="#FCFCFC" transform="translate(0,0)"/>
<path d="M0 0 C0.77240021 -0.00817749 1.54480042 -0.01635498 2.34060669 -0.02478027 C4.90837824 -0.04968416 7.47609425 -0.0661645 10.04394531 -0.08056641 C10.91939247 -0.08589008 11.79483963 -0.09121376 12.69681549 -0.09669876 C17.33204779 -0.12345433 21.96725295 -0.14281992 26.60253906 -0.15722656 C31.39237979 -0.17386429 36.18153107 -0.21862744 40.9711113 -0.26959801 C44.65143629 -0.3032511 48.33159747 -0.31480197 52.01206207 -0.32045364 C53.77753202 -0.32717346 55.54299091 -0.34241457 57.30831146 -0.36634445 C59.78163242 -0.39795357 62.25309271 -0.39803969 64.7265625 -0.390625 C65.81932999 -0.415233 65.81932999 -0.415233 66.93417358 -0.44033813 C70.39539199 -0.39790702 72.42454374 0.06002686 75.30936623 2.0001812 C78.78087993 6.79260872 78.31445176 11.10300699 78.25698853 16.88391113 C78.26478848 18.08113627 78.27258843 19.27836141 78.28062475 20.51186609 C78.29712188 23.83207718 78.29118135 27.15087469 78.27569366 30.47099996 C78.26438665 34.05254948 78.28183956 37.63397495 78.29559326 41.21549988 C78.31783732 48.23041047 78.3130194 55.24505373 78.29853006 62.25997484 C78.28724236 67.96063646 78.28570487 73.66122311 78.29114914 79.3618927 C78.2919153 80.17295248 78.29268147 80.98401226 78.29347085 81.81964961 C78.29506946 83.4672543 78.29669053 85.11485898 78.29833381 86.76246363 C78.31259472 102.21545876 78.29619325 117.66830563 78.26933198 133.12127644 C78.24699285 146.38333407 78.25087289 159.64517288 78.27392578 172.90722656 C78.30067778 188.30456251 78.3112214 203.70176849 78.29586446 219.09912443 C78.2942717 220.74069943 78.29269985 222.38227445 78.29114914 224.02384949 C78.29037776 224.8315553 78.28960638 225.63926111 78.28881163 226.47144285 C78.28449282 232.16587418 78.29178506 237.86022314 78.30354691 243.55464172 C78.31756381 250.49342592 78.31378925 257.43192727 78.28714319 264.37067902 C78.27399377 267.91165747 78.26887103 271.45216421 78.28538895 274.99313927 C78.30301487 278.82963717 78.28198323 282.66536106 78.25698853 286.50183105 C78.26814213 287.6239041 78.27929574 288.74597714 78.29078734 289.9020524 C78.19562341 297.40136578 78.19562341 297.40136578 75.31005669 301.38345814 C71.78508165 303.75628843 68.81212118 303.90379267 64.69824219 303.85571289 C63.9155043 303.86608078 63.13276642 303.87644867 62.3263092 303.88713074 C59.74727463 303.91416395 57.16994489 303.90454857 54.59082031 303.89208984 C52.79389981 303.89799986 50.99698324 303.90524704 49.20007324 303.91377258 C45.43737241 303.92564647 41.67526334 303.91895557 37.91259766 303.8996582 C33.09339706 303.87676535 28.27595886 303.90355727 23.45693207 303.94472027 C19.74733522 303.9703084 16.03815958 303.96771587 12.32850647 303.95682716 C10.55190938 303.95534135 8.77527987 303.96302041 6.99876404 303.98007774 C4.51339131 304.00006891 2.0311283 303.98165127 -0.45410156 303.95336914 C-1.18567978 303.96708557 -1.917258 303.980802 -2.67100525 303.99493408 C-6.4493253 303.90910697 -8.18445475 303.3594085 -11.06591606 300.87913322 C-14.63274153 296.27462234 -14.06889632 291.04233299 -14.0128479 285.45750427 C-14.02064785 284.26759182 -14.02844781 283.07767936 -14.03648412 281.85170895 C-14.05296257 278.55655526 -14.04705417 275.26282913 -14.03155303 271.96776259 C-14.0202341 268.41145232 -14.03770477 264.85526626 -14.05145264 261.29898071 C-14.07368327 254.33567557 -14.06888495 247.37263992 -14.05438943 240.40932422 C-14.04309736 234.75063907 -14.04156613 229.09202944 -14.04700851 223.43333626 C-14.04777468 222.62796269 -14.04854084 221.82258912 -14.04933023 220.9928103 C-14.05092885 219.35672114 -14.05254992 217.720632 -14.05419318 216.08454288 C-14.06844993 200.74408963 -14.05205869 185.4037858 -14.02519135 170.06335706 C-14.00284835 156.89852718 -14.00673626 143.73391771 -14.02978516 130.5690918 C-14.05653718 115.28198478 -14.06708112 99.99500866 -14.05172384 84.70788151 C-14.05013108 83.07811775 -14.04855923 81.44835397 -14.04700851 79.81859016 C-14.04623714 79.01670756 -14.04546576 78.21482496 -14.04467101 77.38864289 C-14.04035252 71.73577776 -14.04764365 66.08299563 -14.05940628 60.43014336 C-14.07342303 53.54261954 -14.06964879 46.65538068 -14.04300256 39.76788955 C-14.02985358 36.25323143 -14.02472971 32.73904854 -14.04124832 29.22439384 C-14.05887505 25.41641137 -14.03784206 21.60920863 -14.0128479 17.80125427 C-14.02957831 16.13084073 -14.02957831 16.13084073 -14.04664671 14.42668146 C-13.94032077 6.10959568 -13.94032077 6.10959568 -10.9007473 3.02984715 C-10.06821749 2.42364505 -9.23568768 1.81744295 -8.37792969 1.19287109 C-6.42392449 -0.76113411 -2.66944582 0.01543792 0 0 Z " fill="#2C66A3" transform="translate(662.3779296875,405.80712890625)"/>
<path d="M0 0 C-1.40661836 10.51119316 -2.82773107 21.01775809 -4.4375 31.5 C-5.96284932 41.44032939 -7.2701064 51.40896396 -8.55444336 61.3828125 C-9.50069832 68.63374948 -10.60346134 75.82162512 -12 83 C-15.18197166 81.82452703 -17.7920857 80.61803591 -20.4453125 78.50390625 C-21.04730469 78.02759766 -21.64929688 77.55128906 -22.26953125 77.06054688 C-23.18798828 76.31901367 -23.18798828 76.31901367 -24.125 75.5625 C-24.74503906 75.07201172 -25.36507813 74.58152344 -26.00390625 74.07617188 C-30.68667455 70.34506294 -30.68667455 70.34506294 -32.51123047 68.33569336 C-34.03881395 66.66609801 -34.03881395 66.66609801 -37 67 C-38.79953065 69.000154 -40.39816006 70.97443387 -42 73.125 C-42.98942561 74.41808945 -43.97901341 75.71105481 -44.96875 77.00390625 C-45.47277344 77.66922363 -45.97679687 78.33454102 -46.49609375 79.02001953 C-48.80241464 82.05642577 -51.14709272 85.06212003 -53.5 88.0625 C-53.95310547 88.6414502 -54.40621094 89.22040039 -54.87304688 89.81689453 C-58.43508783 94.34270756 -62.13570619 98.73649623 -65.87939453 103.11230469 C-69.61936396 107.50276118 -73.1917885 112.00820247 -76.734375 116.55859375 C-80.26536569 121.08703944 -83.86811076 125.55217801 -87.5 130 C-92.02771815 135.54903297 -96.49516165 141.13916025 -100.90625 146.78125 C-104.74108548 151.68317014 -108.62722341 156.54259318 -112.52197266 161.39697266 C-115.85487922 165.55584639 -119.15491285 169.73884201 -122.4375 173.9375 C-126.94195793 179.69537231 -131.54029048 185.3723337 -136.16162109 191.03662109 C-140.13103946 195.90983824 -144.03509901 200.82977781 -147.90625 205.78125 C-151.73819553 210.67947603 -155.62132943 215.53529685 -159.51318359 220.38598633 C-162.46249363 224.06617076 -165.3932774 227.75960781 -168.29614258 231.4765625 C-169.21539563 232.64825125 -170.14092625 233.81504501 -171.07299805 234.9765625 C-173.25949661 237.7088004 -175.31676737 240.43641978 -177.1953125 243.390625 C-179.30073418 246.48272032 -181.04953456 248.70460929 -184 251 C-186.94018555 251.12939453 -186.94018555 251.12939453 -190.26171875 250.5078125 C-191.5046167 250.28319336 -192.74751465 250.05857422 -194.02807617 249.82714844 C-195.35284152 249.55525703 -196.67681947 249.27950212 -198 249 C-199.28688721 248.73477539 -200.57377441 248.46955078 -201.8996582 248.19628906 C-205.36494514 247.46121932 -208.81877509 246.68076885 -212.27105713 245.88708496 C-216.18568851 244.98772415 -220.1046497 244.10760512 -224.0234375 243.2265625 C-225.24255325 242.95199219 -225.24255325 242.95199219 -226.48629761 242.671875 C-237.21105429 240.26568212 -247.97206711 238.0309692 -258.73242188 235.79052734 C-259.47381409 235.63582977 -260.2152063 235.4811322 -260.97906494 235.32174683 C-262.44547894 235.01581146 -263.91207014 234.71072417 -265.37884521 234.40652466 C-269.21960685 233.60454301 -273.04839755 232.76553093 -276.87011719 231.87695312 C-278.07726883 231.59878754 -278.07726883 231.59878754 -279.30880737 231.31500244 C-280.83894692 230.96044038 -282.36766956 230.59967967 -283.89456177 230.23138428 C-291.6645637 228.36197398 -291.6645637 228.36197398 -299.22485352 230.1105957 C-299.85319092 230.62710693 -300.48152832 231.14361816 -301.12890625 231.67578125 C-302.20543457 232.53852661 -302.20543457 232.53852661 -303.30371094 233.41870117 C-304.04911133 234.04365479 -304.79451172 234.6686084 -305.5625 235.3125 C-306.74440918 236.26829956 -306.74440918 236.26829956 -307.95019531 237.2434082 C-309.55353171 238.54031983 -311.15173691 239.84360186 -312.74462891 241.15332031 C-315.87394633 243.71558022 -319.05996269 246.20163795 -322.25 248.6875 C-323.38595344 249.58004643 -324.52137449 250.47327088 -325.65625 251.3671875 C-326.20925781 251.80256836 -326.76226562 252.23794922 -327.33203125 252.68652344 C-327.88246094 253.1199707 -328.43289063 253.55341797 -329 254 C-343.13136242 265.12803422 -357.30562668 276.19808116 -371.60693359 287.10717773 C-379.01447187 292.76326829 -386.36632046 298.49015024 -393.71630859 304.22070312 C-396.02421479 306.01886652 -398.3340393 307.81453557 -400.64453125 309.609375 C-407.44230327 314.8903066 -414.23605675 320.17577948 -421 325.5 C-426.44634841 329.78625537 -431.90664451 334.05435433 -437.375 338.3125 C-438.11234375 338.88742187 -438.8496875 339.46234375 -439.609375 340.0546875 C-441.03370999 341.16278927 -442.4604116 342.26785681 -443.88964844 343.36962891 C-445.33730595 344.48802975 -446.77773298 345.61583404 -448.21191406 346.75146484 C-448.91799805 347.30141113 -449.62408203 347.85135742 -450.3515625 348.41796875 C-450.98143066 348.91449951 -451.61129883 349.41103027 -452.26025391 349.92260742 C-454 351 -454 351 -457 351 C-458.77926847 348.80487579 -460.36642765 346.64926586 -461.9375 344.3125 C-462.79945885 343.05768434 -463.66272089 341.80376278 -464.52734375 340.55078125 C-464.94097168 339.94830566 -465.35459961 339.34583008 -465.78076172 338.72509766 C-467.42248637 336.40222493 -469.19154636 334.19448087 -471 332 C-469.63803222 328.83597859 -468.23679477 327.11198825 -465.5 325.0390625 C-464.43011841 324.21873535 -464.43011841 324.21873535 -463.33862305 323.38183594 C-462.56687744 322.80208008 -461.79513184 322.22232422 -461 321.625 C-459.36050578 320.37262006 -457.72118786 319.12000928 -456.08203125 317.8671875 C-454.81866943 316.9076416 -454.81866943 316.9076416 -453.52978516 315.92871094 C-449.55786815 312.90051712 -445.62436739 309.82352299 -441.6875 306.75 C-433.46616074 300.35121206 -425.21071731 293.99799282 -416.9453125 287.65625 C-408.37978964 281.07724491 -399.85224907 274.45011691 -391.33056641 267.81445312 C-387.55482734 264.87486662 -383.77734465 261.93752285 -380 259 C-378.49999123 257.83334461 -376.99999124 256.66667793 -375.5 255.5 C-366.5 248.5 -366.5 248.5 -364.24902344 246.74926758 C-362.75224357 245.58508741 -361.25549866 244.4208623 -359.75878906 243.2565918 C-355.95980942 240.30150827 -352.16018535 237.34725986 -348.359375 234.39453125 C-339.0033116 227.12790458 -339.0033116 227.12790458 -329.67944336 219.82006836 C-328.56817626 218.9465953 -327.45443527 218.07625962 -326.33813477 217.20922852 C-322.98205789 214.59625876 -319.70037207 211.91467601 -316.44921875 209.171875 C-314.8620162 207.86453837 -313.27477698 206.55724626 -311.6875 205.25 C-310.95853516 204.61642578 -310.22957031 203.98285156 -309.47851562 203.33007812 C-306.06200015 200.5516426 -303.48548689 198.50455408 -298.95703125 198.89453125 C-297.29655701 199.22445508 -295.64480026 199.59918018 -294 200 C-292.88197998 200.22961426 -291.76395996 200.45922852 -290.61206055 200.69580078 C-287.168744 201.40932197 -283.73641742 202.15785095 -280.30456543 202.92376709 C-276.25253915 203.82704335 -272.1968165 204.71329793 -268.140625 205.59765625 C-266.83209564 205.88298218 -266.83209564 205.88298218 -265.49713135 206.17407227 C-251.80661015 209.14355094 -238.06960786 211.89261974 -224.33984375 214.67358398 C-223.32118225 214.880121 -222.30252075 215.08665802 -221.25299072 215.29945374 C-219.35062862 215.68492038 -217.44809474 216.06954069 -215.54534912 216.45310974 C-210.64222201 217.44551563 -205.75330098 218.48353357 -200.87454224 219.58984375 C-197.45391727 220.33860256 -197.45391727 220.33860256 -194 220 C-192.03741442 218.15969389 -190.50936661 216.47602954 -188.875 214.375 C-188.16114136 213.49473145 -188.16114136 213.49473145 -187.43286133 212.59667969 C-185.9381165 210.74405207 -184.46676702 208.87482975 -183 207 C-182.11076299 205.87232809 -181.22144257 204.74472194 -180.33203125 203.6171875 C-178.99655173 201.9195105 -177.66398203 200.21977962 -176.33740234 198.51513672 C-172.64112166 193.77354838 -168.83564431 189.12927966 -165 184.5 C-160.28751166 178.80946007 -155.65599666 173.06894419 -151.11547852 167.24047852 C-147.61550632 162.75679958 -144.03705067 158.34148976 -140.4375 153.9375 C-136.55012105 149.17831289 -132.72659912 144.38625395 -129 139.5 C-124.73792101 133.91163386 -120.33360701 128.45371487 -115.88671875 123.01171875 C-112.37663702 118.71063269 -108.91587728 114.37620175 -105.5 110 C-100.41414989 103.48760818 -95.20903602 97.07633312 -89.98828125 90.671875 C-87.02109916 87.0310474 -84.08737548 83.36441382 -81.16015625 79.69140625 C-78.84308332 76.8044926 -76.50749626 73.93324212 -74.16894531 71.0637207 C-71.93259525 68.31747526 -69.70319062 65.56563259 -67.47412109 62.81347656 C-66.20510678 61.25232414 -64.92579479 59.69955256 -63.64453125 58.1484375 C-62.70673828 56.99214844 -62.70673828 56.99214844 -61.75 55.8125 C-61.22921875 55.17957031 -60.7084375 54.54664063 -60.171875 53.89453125 C-58.77036504 51.62875682 -58.37999114 49.61922465 -58 47 C-58.59425781 46.52691406 -59.18851563 46.05382812 -59.80078125 45.56640625 C-61.55028778 44.17061022 -63.29751353 42.77195266 -65.04296875 41.37109375 C-67.06128552 39.75270765 -69.08497492 38.1410048 -71.11328125 36.53515625 C-72.10714844 35.73980469 -73.10101562 34.94445312 -74.125 34.125 C-75.05570313 33.38507813 -75.98640625 32.64515625 -76.9453125 31.8828125 C-77.96238281 30.95082031 -77.96238281 30.95082031 -79 30 C-79 29.34 -79 28.68 -79 28 C-56.49398729 19.72486884 -56.49398729 19.72486884 -45.6796875 16.30078125 C-42.54274869 15.19186339 -39.51323724 13.97912194 -36.44921875 12.6875 C-29.67886635 9.83524394 -22.8253459 7.2406554 -15.9375 4.6875 C-14.72900391 4.23310547 -13.52050781 3.77871094 -12.27539062 3.31054688 C-11.12103516 2.88193359 -9.96667969 2.45332031 -8.77734375 2.01171875 C-7.73827881 1.62459717 -6.69921387 1.23747559 -5.62866211 0.83862305 C-3 0 -3 0 0 0 Z " fill="#FAFAFA" transform="translate(751,236)"/>
<path d="M0 0 C0.78273788 -0.0087616 1.56547577 -0.01752319 2.37193298 -0.02655029 C4.95099857 -0.04849925 7.52833986 -0.03400882 10.10742188 -0.01708984 C11.9043409 -0.0204593 13.70125771 -0.02531301 15.49816895 -0.03158569 C19.26088193 -0.03895088 23.02300072 -0.02826321 26.78564453 -0.00488281 C31.60468084 0.0236051 36.42232487 0.00719918 41.24131012 -0.02274513 C44.95089171 -0.04082788 48.66014412 -0.03505567 52.36973572 -0.02210617 C54.14631821 -0.01877484 55.92293076 -0.02284965 57.69947815 -0.03450394 C60.1845698 -0.04722931 62.66741884 -0.02781507 65.15234375 0 C66.24971107 -0.01518173 66.24971107 -0.01518173 67.36924744 -0.03067017 C71.00675665 0.04461776 72.85958653 0.47999106 75.76415825 2.71933937 C78.5619983 6.26216004 78.78110103 8.79179328 78.71109009 13.12402344 C78.71889004 13.86797426 78.72668999 14.61192509 78.73472631 15.37841988 C78.75464218 17.86688138 78.73888468 20.3538128 78.72314453 22.84228516 C78.72992088 24.6279998 78.73882411 26.41370745 78.74969482 28.19940186 C78.77249276 33.04656857 78.76364979 37.89320329 78.7477994 42.74037933 C78.73514299 47.81228573 78.74687979 52.8841465 78.75473022 57.95605469 C78.76382753 66.47355327 78.7518367 74.9908351 78.72802734 83.50830078 C78.70081595 93.35654381 78.70963005 103.20426929 78.73715937 113.05249977 C78.75984708 121.50700626 78.76305217 129.96135692 78.74996603 138.41588402 C78.74216967 143.46583922 78.74113504 148.51555114 78.75764847 153.56549072 C78.77208902 158.31318648 78.76207914 163.06021481 78.73317719 167.80783844 C78.72656414 169.5505182 78.7284678 171.29325411 78.73949051 173.03591156 C78.75314985 175.4146739 78.73602879 177.79129607 78.71109009 180.16992188 C78.7222437 180.86009966 78.73339731 181.55027744 78.7448889 182.26136971 C78.66845141 186.01824781 78.12197383 187.58898336 75.76415825 190.57418537 C72.26636107 193.27144217 69.40005118 193.35945831 65.15234375 193.30981445 C64.36960587 193.32018234 63.58686798 193.33055023 62.78041077 193.3412323 C60.20137619 193.36826551 57.62404645 193.35865013 55.04492188 193.34619141 C53.24800137 193.35210142 51.45108481 193.3593486 49.6541748 193.36787415 C45.89147397 193.37974803 42.12936491 193.37305713 38.36669922 193.35375977 C33.54749862 193.33086691 28.73006042 193.35765883 23.91103363 193.39882183 C20.20143679 193.42440996 16.49226114 193.42181743 12.78260803 193.41092873 C11.00601094 193.40944292 9.22938143 193.41712197 7.4528656 193.43417931 C4.96749287 193.45417047 2.48522987 193.43575283 0 193.4074707 C-0.73157822 193.42118713 -1.46315643 193.43490356 -2.21690369 193.44903564 C-6.18052517 193.35899928 -7.71924933 192.84293239 -10.6118145 190.0722332 C-13.30655603 186.60782195 -13.62881953 183.3809677 -13.55874634 179.08763123 C-13.56654629 178.34690953 -13.57434624 177.60618783 -13.58238256 176.84302002 C-13.60225924 174.37147822 -13.58655647 171.90148369 -13.57080078 169.42993164 C-13.57757882 167.65392155 -13.58648299 165.87791849 -13.59735107 164.10192871 C-13.62012729 159.28581058 -13.61131545 154.47022853 -13.59545565 149.65410113 C-13.58278996 144.61289709 -13.59453844 139.5717387 -13.60238647 134.53053284 C-13.61148024 126.0660885 -13.59950137 117.60186237 -13.57568359 109.13745117 C-13.54846409 99.35110227 -13.5572936 89.56527407 -13.58481562 79.77893776 C-13.60750294 71.37536582 -13.61070887 62.97195066 -13.59762228 54.568358 C-13.58982683 49.5497163 -13.58878895 44.53131939 -13.60530472 39.51269341 C-13.61974502 34.79535151 -13.6097359 30.07868135 -13.58083344 25.36141205 C-13.57422063 23.63001941 -13.57612365 21.89857026 -13.58714676 20.16720009 C-13.60080687 17.80381314 -13.58368437 15.44258 -13.55874634 13.07933044 C-13.56989995 12.39372573 -13.58105356 11.70812101 -13.59254515 11.0017404 C-13.51583435 7.25555122 -12.96429042 5.69815996 -10.6118145 2.72213268 C-7.11234771 0.02049935 -4.25026117 -0.05880103 0 0 Z " fill="#2C92CF" transform="translate(531.923828125,516.35302734375)"/>
<path d="M0 0 C1.17388779 -0.01292336 1.17388779 -0.01292336 2.37149048 -0.02610779 C4.95576146 -0.04879112 7.53895003 -0.04202464 10.12329102 -0.03295898 C11.92163923 -0.03819383 13.71998468 -0.04446979 15.51832581 -0.05174255 C19.28692547 -0.06215132 23.05514766 -0.05757899 26.82373047 -0.04296875 C31.65060273 -0.02578657 36.47628401 -0.04926616 41.30302334 -0.08445835 C45.01686983 -0.10643205 48.73043139 -0.10499088 52.44432259 -0.09669304 C54.22370776 -0.09587337 56.00311383 -0.10273973 57.78243828 -0.11746407 C60.27236713 -0.13490873 62.76015676 -0.12037024 65.25 -0.09765625 C66.34972389 -0.11519455 66.34972389 -0.11519455 67.47166443 -0.13308716 C70.97898076 -0.06807266 73.13056208 0.49795657 76.14648438 2.30799866 C79.3035781 7.29183739 78.87856487 11.98621478 78.82080078 17.77172852 C78.82795609 19.01288422 78.83511139 20.25403992 78.84248352 21.5328064 C78.85648319 24.92998177 78.84807524 28.32563218 78.82839322 31.72268295 C78.81198641 35.28111407 78.82082242 38.83949618 78.82591248 42.39794922 C78.8304312 48.37325577 78.81457766 54.34824906 78.78662109 60.32348633 C78.75456985 67.22702259 78.75458543 74.12999392 78.77183586 81.03357029 C78.78771195 87.68060435 78.78096054 94.32743174 78.76389885 100.97445679 C78.7570348 103.80054237 78.75805405 106.62646196 78.7654438 109.45254517 C78.77454302 113.40030371 78.75054764 117.34748408 78.72314453 121.29516602 C78.72967041 122.46622894 78.73619629 123.63729187 78.74291992 124.84384155 C78.64933802 132.76212257 78.64933802 132.76212257 76.28135681 136.73583984 C72.57350223 139.92243248 69.482367 139.69869626 64.79003906 139.72631836 C64.0272464 139.73449585 63.26445374 139.74267334 62.47854614 139.75109863 C59.94867745 139.77595558 57.41886487 139.79246927 54.88891602 139.80688477 C53.59366973 139.81487028 53.59366973 139.81487028 52.27225685 139.82301712 C47.70185865 139.84974992 43.13148777 139.86912445 38.56103516 139.88354492 C33.83960041 139.900194 29.11886353 139.94497311 24.39769268 139.99591637 C20.76798193 140.02956759 17.13843726 140.04111997 13.50858498 140.046772 C11.76823403 140.05349032 10.02789424 140.06872754 8.28769493 140.09266281 C5.85039735 140.12427357 3.4149877 140.12435814 0.97753906 140.11694336 C0.25994919 140.13334869 -0.45764069 140.14975403 -1.19697571 140.16665649 C-4.66654199 140.12349593 -6.7706218 139.55713105 -9.75759888 137.77433777 C-12.94861001 132.73624246 -12.49879455 127.94308157 -12.44140625 122.09570312 C-12.44856155 120.83343399 -12.45571686 119.57116486 -12.46308899 118.27064514 C-12.48158142 114.81596888 -12.46867989 111.36206576 -12.44899869 107.90742183 C-12.43259604 104.28979918 -12.44142715 100.67222488 -12.44651794 97.05458069 C-12.45103656 90.98092313 -12.4351824 84.90757378 -12.40722656 78.83398438 C-12.37516097 71.81341553 -12.37519653 64.79340206 -12.39244133 57.77279371 C-12.40830679 51.01576651 -12.40157379 44.25894281 -12.38450432 37.50192451 C-12.37763423 34.62756491 -12.37866568 31.75336846 -12.38604927 28.87901115 C-12.39513543 24.86629263 -12.37117616 20.8544318 -12.34375 16.84179688 C-12.35027588 15.64843719 -12.35680176 14.45507751 -12.36352539 13.22555542 C-12.35080093 12.13344254 -12.33807648 11.04132965 -12.32496643 9.91612244 C-12.32215951 8.967639 -12.31935259 8.01915556 -12.31646061 7.0419302 C-10.96283852 0.33347407 -5.88860405 -0.05227109 0 0 Z " fill="#6AC5EA" transform="translate(401.810302734375,569.466552734375)"/>
<path d="M0 0 C1.14243668 -0.0131424 1.14243668 -0.0131424 2.30795288 -0.02655029 C4.81729675 -0.04849712 7.32486777 -0.03400841 9.83422852 -0.01708984 C11.58391151 -0.02045972 13.33359222 -0.02531377 15.08326721 -0.03158569 C18.74763306 -0.03895088 22.41138878 -0.02826464 26.07568359 -0.00488281 C30.76459888 0.02358415 35.4520819 0.00721269 40.14094448 -0.02274513 C43.75363379 -0.04084599 47.3659857 -0.03504705 50.97868538 -0.02210617 C52.70699293 -0.01877874 54.43533146 -0.02283588 56.16360283 -0.03450394 C58.58384719 -0.04725701 61.00180056 -0.02777621 63.421875 0 C64.13115646 -0.01012115 64.84043793 -0.02024231 65.57121277 -0.03067017 C69.19087614 0.04598746 71.80381505 0.63711747 74.71896362 2.72085571 C77.78986883 6.23551492 78.12565042 8.64244264 78.03613281 13.11181641 C78.04504044 13.84578644 78.05394806 14.57975647 78.06312561 15.33596802 C78.08437101 17.75305093 78.06212632 20.16745628 78.03735352 22.58447266 C78.03885648 24.26928988 78.04228784 25.95410638 78.04756165 27.63891602 C78.05189031 31.16637024 78.0350774 34.69290938 78.00292969 38.22021484 C77.96314759 42.73665297 77.97244959 47.25137549 77.99716473 51.76786804 C78.01136253 55.24587003 78.00124966 58.72347277 77.98365211 62.20144653 C77.97781125 63.86637417 77.97909149 65.5313428 77.98767662 67.19625854 C77.99568887 69.52580212 77.9713794 71.85285075 77.93847656 74.18212891 C77.95130173 75.20936569 77.95130173 75.20936569 77.96438599 76.25735474 C77.87749491 79.82999375 77.28937497 81.62737865 75.22370911 84.5730896 C71.57486114 87.13994616 68.75212302 87.35432406 64.44360352 87.29394531 C63.6706192 87.30270691 62.89763489 87.31146851 62.10122681 87.32049561 C59.55461944 87.34244231 57.00975874 87.32795508 54.46313477 87.31103516 C52.68863594 87.31440468 50.91413937 87.31925845 49.13964844 87.32553101 C45.42401109 87.33289588 41.7089755 87.32220958 37.9934082 87.29882812 C33.23489993 87.27034016 28.47780165 87.28674625 23.71934509 87.31669044 C20.05608531 87.33477408 16.39315884 87.3290006 12.72988892 87.31605148 C10.9756351 87.3127204 9.22135083 87.31679412 7.46713257 87.32844925 C5.01316398 87.34117616 2.56146581 87.32175856 0.10766602 87.29394531 C-0.9756752 87.30912704 -0.9756752 87.30912704 -2.0809021 87.32461548 C-5.75850253 87.24754579 -7.6430971 86.70412316 -10.6734314 84.5730896 C-13.15693494 81.02981498 -13.43312965 78.3631254 -13.37133789 74.18212891 C-13.38009949 73.44815887 -13.38886108 72.71418884 -13.39788818 71.95797729 C-13.41982531 69.54120077 -13.4053517 67.1262665 -13.38842773 64.70947266 C-13.39179755 63.02465464 -13.39665156 61.339839 -13.40292358 59.6550293 C-13.41028713 56.12769374 -13.39960669 52.6009922 -13.3762207 49.07373047 C-13.3477325 44.55733272 -13.36413935 40.04242054 -13.39408302 35.52607727 C-13.41217043 32.04810437 -13.40639152 28.57048239 -13.39344406 25.09249878 C-13.390114 23.42755964 -13.3941831 21.76258841 -13.40584183 20.09768677 C-13.41857533 17.76820782 -13.39914338 15.44111782 -13.37133789 13.11181641 C-13.38651962 12.08457962 -13.38651962 12.08457962 -13.40200806 11.03659058 C-13.32304425 7.45710463 -12.74045855 5.66985829 -10.66670227 2.72085571 C-7.04845924 0.17056564 -4.27510778 -0.06083042 0 0 Z " fill="#69C4E9" transform="translate(272.724365234375,622.35302734375)"/>
<path d="M0 0 C4.95 0 9.9 0 15 0 C15 4.29 15 8.58 15 13 C16.11375 13.103125 17.2275 13.20625 18.375 13.3125 C27.07155558 14.43019112 35.56308053 17.30902002 43 22 C43.99 23.485 43.99 23.485 45 25 C42.36 29.95 39.72 34.9 37 40 C31.47259346 38.89451869 27.19265658 36.82259946 22.15625 34.375 C18.78353509 32.77311377 18.78353509 32.77311377 14 32 C14 41.24 14 50.48 14 60 C17.63 60.99 21.26 61.98 25 63 C34.18630183 66.61632696 41.69474749 71.2006095 46.4375 80.0625 C49.45957738 87.72889544 49.18111572 96.66674631 46.4375 104.375 C42.44622194 112.94990127 35.90018399 119.07156396 27.1875 122.6875 C22.83606265 124.23617403 18.59105703 124.64132367 14 125 C14 129.62 14 134.24 14 139 C9.71 139 5.42 139 1 139 C1 134.38 1 129.76 1 125 C-0.485 124.95875 -1.97 124.9175 -3.5 124.875 C-15.54652226 123.75583922 -26.67236723 118.57870163 -36 111 C-35.42294958 106.98228647 -34.15478031 104.23632159 -32 100.8125 C-29.89110597 97.46706412 -29.89110597 97.46706412 -28 94 C-24.8377205 95.54781362 -21.76449466 97.22709137 -18.6875 98.9375 C-12.34661799 102.39462982 -7.2267181 104.79554698 0 106 C0 96.76 0 87.52 0 78 C-3.63 77.01 -7.26 76.02 -11 75 C-19.68162992 71.50190736 -26.62753244 66.18665502 -31.15625 57.87890625 C-34.3133215 49.91314713 -34.27253579 40.55219011 -31.3125 32.5625 C-27.83069203 25.03887299 -22.49551315 19.38633995 -14.83203125 16.05859375 C-9.9195051 14.30834777 -5.18427149 13.47129741 0 13 C0 8.71 0 4.42 0 0 Z " fill="#F9F9FA" transform="translate(516,272)"/>
<path d="M0 0 C5.49752057 1.83250686 10.26556812 3.53113625 13 9 C13.37766377 14.00404498 13.11200434 16.99885156 10 21 C6.58190942 24.30022539 5.18039345 24.13660109 0 25 C0 16.75 0 8.5 0 0 Z " fill="#314C60" transform="translate(530,354)"/>
<path d="M0 0 C0 7.59 0 15.18 0 23 C-5.34967121 21.93006576 -8.10924254 20.61104602 -11.3125 16.1875 C-12.34879653 12.89019286 -12.41531753 10.44120236 -12 7 C-8.77606954 1.63077752 -6.28770405 0 0 0 Z " fill="#334E62" transform="translate(516,304)"/>
<path d="M0 0 C-0.96679688 0.29003906 -0.96679688 0.29003906 -1.953125 0.5859375 C-4.34351201 1.88708247 -4.34351201 1.88708247 -4.609375 5.0390625 C-4.67898438 6.81410156 -4.67898438 6.81410156 -4.75 8.625 C-4.8325 10.72875 -4.915 12.8325 -5 15 C-9.62 15 -14.24 15 -19 15 C-19 14.67 -19 14.34 -19 14 C-14.71 14 -10.42 14 -6 14 C-6 9.38 -6 4.76 -6 0 C-3.50907189 -1.24546405 -2.58919267 -0.7767578 0 0 Z " fill="#748593" transform="translate(536,397)"/>
</svg>
