<svg xmlns="http://www.w3.org/2000/svg" viewBox="0 0 400 160" width="400" height="160">
  <defs>
    <linearGradient id="barGrad1" x1="0%" y1="0%" x2="0%" y2="100%">
      <stop offset="0%" style="stop-color:#3B82F6;stop-opacity:1" />
      <stop offset="100%" style="stop-color:#2563EB;stop-opacity:1" />
    </linearGradient>
    <linearGradient id="barGrad2" x1="0%" y1="0%" x2="0%" y2="100%">
      <stop offset="0%" style="stop-color:#10B981;stop-opacity:1" />
      <stop offset="100%" style="stop-color:#059669;stop-opacity:1" />
    </linearGradient>
    <linearGradient id="barGrad3" x1="0%" y1="0%" x2="0%" y2="100%">
      <stop offset="0%" style="stop-color:#6366F1;stop-opacity:1" />
      <stop offset="100%" style="stop-color:#4F46E5;stop-opacity:1" />
    </linearGradient>
    <linearGradient id="textGrad" x1="0%" y1="0%" x2="100%" y2="0%">
      <stop offset="0%" style="stop-color:#1E293B" />
      <stop offset="100%" style="stop-color:#334155" />
    </linearGradient>
    <linearGradient id="trendLine" x1="0%" y1="100%" x2="100%" y2="0%">
      <stop offset="0%" style="stop-color:#10B981;stop-opacity:0.6" />
      <stop offset="100%" style="stop-color:#3B82F6;stop-opacity:0.9" />
    </linearGradient>
    <!-- Glow filter -->
    <filter id="glow" x="-20%" y="-20%" width="140%" height="140%">
      <feGaussianBlur stdDeviation="2" result="blur" />
      <feMerge>
        <feMergeNode in="blur" />
        <feMergeNode in="SourceGraphic" />
      </feMerge>
    </filter>
    <!-- Subtle shadow -->
    <filter id="shadow" x="-5%" y="-5%" width="115%" height="125%">
      <feDropShadow dx="0" dy="2" stdDeviation="3" flood-color="#1E293B" flood-opacity="0.12"/>
    </filter>
  </defs>

  <!-- Background rounded box (subtle) -->
  <rect x="8" y="8" width="384" height="144" rx="16" ry="16" fill="#F8FAFC" filter="url(#shadow)" />

  <!-- === ICON MARK === -->
  <!-- Base circle -->
  <circle cx="72" cy="80" r="42" fill="#EFF6FF" />

  <!-- Bar Chart inside circle -->
  <!-- Bar 1 (shortest - blue) -->
  <rect x="48" y="88" width="10" height="24" rx="3" ry="3" fill="url(#barGrad1)" />
  <!-- Bar 2 (medium - indigo) -->
  <rect x="62" y="72" width="10" height="40" rx="3" ry="3" fill="url(#barGrad3)" />
  <!-- Bar 3 (tallest - green) -->
  <rect x="76" y="58" width="10" height="54" rx="3" ry="3" fill="url(#barGrad2)" />

  <!-- Trend arrow (upward curve) -->
  <polyline points="46,90 56,82 68,78 80,60 92,52" 
            fill="none" stroke="url(#trendLine)" stroke-width="2.5" 
            stroke-linecap="round" stroke-linejoin="round" filter="url(#glow)" />
  <!-- Arrow head -->
  <polygon points="92,48 97,55 89,56" fill="#10B981" />

  <!-- === TEXT === -->
  <!-- Main Title -->
  <text x="130" y="75" font-family="'Segoe UI', 'Helvetica Neue', sans-serif" font-weight="700" font-size="32" fill="url(#textGrad)" letter-spacing="-0.5">
    <tspan>Sales</tspan>
    <tspan fill="#3B82F6"> Lytics</tspan>
  </text>

  <!-- Tagline -->
  <text x="132" y="103" font-family="'Segoe UI', 'Helvetica Neue', sans-serif" font-weight="400" font-size="13" fill="#64748B" letter-spacing="3.5">
    ANALYTICS &amp; INSIGHTS
  </text>

  <!-- Decorative accent line under tagline -->
  <rect x="132" y="112" width="52" height="2.5" rx="1.25" fill="url(#barGrad2)" opacity="0.7"/>
  <rect x="188" y="112" width="24" height="2.5" rx="1.25" fill="url(#barGrad1)" opacity="0.45"/>

</svg>